<svg width="40" height="40" viewBox="0 0 40 40" fill="none" xmlns="http://www.w3.org/2000/svg">
<path fill-rule="evenodd" clip-rule="evenodd" d="M0 6.33333C0 4.49239 1.49238 3 3.33333 3H10H30H36.6667C38.5076 3 40 4.49238 40 6.33333V33C40 34.8409 38.5076 36.3333 36.6667 36.3333H30H10H3.33333C1.49239 36.3333 0 34.841 0 33V6.33333ZM3.33333 33H8.33333V26.3333H3.33333V33ZM28.3333 33H11.6667L11.6667 6.33333H28.3333V33ZM31.6667 33H36.6667V26.3333H31.6667V33ZM31.6667 23H36.6667V16.3333H31.6667V23ZM31.6667 13H36.6667V6.33333H31.6667V13ZM3.33333 6.33333L8.33333 6.33333L8.33333 13H3.33333V6.33333ZM3.33333 16.3333H8.33333V23H3.33333V16.3333Z" fill="white"/>
</svg>
