<svg width="40" height="40" viewBox="0 0 40 40" fill="none" xmlns="http://www.w3.org/2000/svg">
<path fill-rule="evenodd" clip-rule="evenodd" d="M20 0C8.955 0 0 8.955 0 20C0 31.045 8.955 40 20 40C31.045 40 40 31.045 40 20C40 8.955 31.045 0 20 0ZM20 3.33333C29.19 3.33333 36.6667 10.81 36.6667 20C36.6667 29.19 29.19 36.6667 20 36.6667C10.81 36.6667 3.33333 29.19 3.33333 20C3.33333 10.81 10.81 3.33333 20 3.33333ZM20.415 8.20475C20.415 9.35475 19.4817 10.2881 18.3317 10.2881C17.1817 10.2881 16.2483 9.35475 16.2483 8.20475C16.2483 7.05475 17.1817 6.12142 18.3317 6.12142C19.4817 6.12142 20.415 7.05475 20.415 8.20475ZM15.8341 17.0833C16.9841 17.0833 17.9175 16.15 17.9175 15C17.9175 13.85 16.9841 12.9167 15.8341 12.9167C14.6841 12.9167 13.7508 13.85 13.7508 15C13.7508 16.15 14.6841 17.0833 15.8341 17.0833ZM28.501 12.7344C28.501 13.8844 27.5676 14.8177 26.4176 14.8177C25.2676 14.8177 24.3343 13.8844 24.3343 12.7344C24.3343 11.5844 25.2676 10.651 26.4176 10.651C27.5676 10.651 28.501 11.5844 28.501 12.7344ZM25.4801 21.5804C26.6301 21.5804 27.5635 20.6471 27.5635 19.4971C27.5635 18.3471 26.6301 17.4137 25.4801 17.4137C24.3301 17.4137 23.3968 18.3471 23.3968 19.4971C23.3968 20.6471 24.3301 21.5804 25.4801 21.5804ZM34.1667 22.0833C34.1667 23.2333 33.2333 24.1667 32.0833 24.1667C30.9333 24.1667 30 23.2333 30 22.0833C30 20.9333 30.9333 20 32.0833 20C33.2333 20 34.1667 20.9333 34.1667 22.0833ZM27.3145 30.708C28.4645 30.708 29.3978 29.7747 29.3978 28.6247C29.3978 27.4747 28.4645 26.5413 27.3145 26.5413C26.1645 26.5413 25.2312 27.4747 25.2312 28.6247C25.2312 29.7747 26.1645 30.708 27.3145 30.708ZM21.2728 25.0033C21.2728 26.1516 20.3395 27.0866 19.1895 27.0866C18.0395 27.0866 17.1062 26.1516 17.1062 25.0033C17.1062 23.8533 18.0395 22.9199 19.1895 22.9199C20.3395 22.9199 21.2728 23.8533 21.2728 25.0033ZM9.80469 27.0866C10.9547 27.0866 11.888 26.1516 11.888 25.0033C11.888 23.8533 10.9547 22.9199 9.80469 22.9199C8.65469 22.9199 7.72135 23.8533 7.72135 25.0033C7.72135 26.1516 8.65469 27.0866 9.80469 27.0866ZM18.3317 31.014C18.3317 32.164 17.3983 33.0973 16.2483 33.0973C15.0983 33.0973 14.165 32.164 14.165 31.014C14.165 29.864 15.0983 28.9307 16.2483 28.9307C17.3983 28.9307 18.3317 29.864 18.3317 31.014ZM10 19.4971C11.15 19.4971 12.0833 18.5637 12.0833 17.4137C12.0833 16.2637 11.15 15.3304 10 15.3304C8.85 15.3304 7.91667 16.2637 7.91667 17.4137C7.91667 18.5637 8.85 19.4971 10 19.4971Z" fill="white"/>
</svg>
