<svg width="28" height="28" viewBox="0 0 28 28" fill="none" xmlns="http://www.w3.org/2000/svg">
<rect width="28" height="28" fill="white"/>
<path fill-rule="evenodd" clip-rule="evenodd" d="M14.8649 6.56214C14.5788 6.52886 14.29 6.51201 14 6.512C13.712 6.51122 13.4249 6.52715 13.1399 6.55954L13.3836 8.17605C13.5862 8.15486 13.7918 8.144 14 8.144C14.21 8.144 14.4174 8.15505 14.6216 8.1766L14.8649 6.56214ZM15.3712 6.63865L15.128 8.25253C15.5394 8.33281 15.9354 8.45617 16.3111 8.61771L17.0191 7.14771C16.4912 6.91509 15.9382 6.74428 15.3712 6.63865ZM17.7937 9.53886C17.48 9.2718 17.1377 9.03725 16.7722 8.84042L17.4803 7.37006C17.7131 7.49225 17.94 7.62701 18.16 7.77402C18.4208 7.94825 18.6693 8.13802 18.9046 8.34194L17.7937 9.53886ZM18.1688 9.88736C18.4587 10.1812 18.7178 10.5056 18.9408 10.8552L20.3543 10.0389C20.0492 9.54933 19.6885 9.09681 19.2797 8.69034L18.1688 9.88736ZM19.6489 12.4509C19.5386 12.0478 19.3863 11.662 19.197 11.2985L20.6102 10.4824C20.7228 10.6941 20.8255 10.9116 20.9178 11.1345C21.0468 11.4459 21.1542 11.7645 21.2396 12.0879L19.6489 12.4509ZM19.7622 12.9502C19.8238 13.2908 19.856 13.6416 19.856 14C19.856 14.0617 19.855 14.1231 19.8532 14.1843L21.4815 14.3065C21.5052 13.73 21.462 13.153 21.3533 12.5871L19.7622 12.9502ZM19.54 15.9025C19.6725 15.5166 19.7658 15.1125 19.8152 14.6949L21.4431 14.8171C21.4195 15.0324 21.3864 15.2472 21.3439 15.4608C21.2736 15.8145 21.178 16.1613 21.0587 16.4986L19.54 15.9025ZM19.3526 16.379C19.1834 16.7591 18.9748 17.1179 18.7322 17.4502L20.0089 18.4678C20.3532 18.0047 20.6425 17.5037 20.8714 16.9751L19.3526 16.379ZM17.5051 18.6916C17.8365 18.4436 18.1407 18.1614 18.4125 17.8502L19.6895 18.868C19.5638 19.0149 19.4321 19.1573 19.2947 19.2947C19.025 19.5677 18.7354 19.8188 18.4286 20.0464L17.5051 18.6916ZM17.0822 18.9802C16.7333 19.1966 16.3599 19.3773 15.9673 19.5174L16.4537 21.0953C16.5921 21.0466 16.7292 20.9937 16.8649 20.9368C17.2631 20.7698 17.6452 20.569 18.0072 20.3371L17.0822 18.9802ZM14.2534 19.8506C14.6746 19.8327 15.0843 19.7702 15.4779 19.6679L15.9652 21.2486C15.4076 21.4029 14.8332 21.4923 14.2534 21.5144V19.8506ZM11.1329 7.07827C11.6173 6.87763 12.1203 6.72924 12.6335 6.63482L12.8772 8.25153C12.4658 8.33141 12.0699 8.45434 11.6941 8.61545L10.9843 7.14173C11.0336 7.12005 11.0832 7.0989 11.1329 7.07827ZM11.2329 8.83771L10.5231 7.36391C10.0124 7.63193 9.53439 7.95851 9.09892 8.33715L10.2105 9.53531C10.5245 9.26849 10.867 9.03422 11.2329 8.83771ZM8.70528 8.70528C8.71162 8.6989 8.71797 8.69254 8.72433 8.68619L9.83505 9.88346C9.54488 10.177 9.28552 10.5011 9.06222 10.8505L7.63964 10.0294C7.94273 9.55012 8.30001 9.10572 8.70528 8.70528ZM8.8056 11.2935L7.38092 10.4712C7.26439 10.6868 7.15831 10.9083 7.06316 11.1351C6.93423 11.4425 6.82625 11.7574 6.73965 12.0778L8.35248 12.4458C8.46317 12.0427 8.61588 11.6569 8.8056 11.2935ZM6.48022 14.0093C6.48167 13.527 6.52971 13.0471 6.62301 12.5763L8.23878 12.945C8.17652 13.2872 8.144 13.6398 8.144 14C8.144 14.06 8.1449 14.1197 8.14669 14.1792L6.48513 14.3038C6.48157 14.2058 6.47993 14.1076 6.48022 14.0093ZM8.18421 14.6899L6.52121 14.8146C6.58185 15.3915 6.70937 15.9598 6.90151 16.5081L8.4582 15.8973C8.32612 15.5114 8.2332 15.1074 8.18421 14.6899ZM7.95311 18.4915C7.60769 18.0256 7.31689 17.5203 7.08725 16.9852L8.64518 16.374C8.814 16.7542 9.02213 17.1131 9.26441 17.4455L7.95311 18.4915ZM9.58371 17.8458L8.27193 18.8921C8.39977 19.042 8.53367 19.1869 8.67337 19.3266C8.94522 19.5985 9.23695 19.8483 9.54575 20.0743L10.4907 18.6885C10.1594 18.4401 9.85535 18.1575 9.58371 17.8458ZM11.113 20.9541C10.7145 20.7897 10.3318 20.5916 9.96901 20.3624L10.9134 18.9774C11.2621 19.1941 11.6352 19.3752 12.0278 19.5156L11.5352 21.1135C11.3931 21.0647 11.2523 21.0115 11.113 20.9541ZM12.517 19.6666L12.0248 21.2632C12.5845 21.4136 13.1605 21.4988 13.7414 21.5164V19.8504C13.3202 19.8321 12.9105 19.7693 12.517 19.6666ZM14.2566 17.6999C14.9037 17.6566 15.5297 17.4444 16.0712 17.0826C16.1102 17.0565 16.1487 17.0297 16.1866 17.0023L17.236 18.2532C16.4014 18.8892 15.3739 19.2851 14.2566 19.3379V17.6999ZM17.628 17.9238L16.5795 16.6741C16.9479 16.3204 17.2412 15.8928 17.4384 15.4167C17.5088 15.2468 17.5661 15.0726 17.6103 14.8956L19.2137 15.1782C18.9722 16.2514 18.4078 17.2024 17.628 17.9238ZM17.6496 13.272C17.7233 13.6425 17.7396 14.0199 17.6998 14.3915L19.3019 14.6739C19.3297 14.4532 19.344 14.2282 19.344 14C19.344 13.1175 19.1301 12.2849 18.7513 11.5514L17.3432 12.3646C17.4833 12.651 17.5868 12.9558 17.6496 13.272ZM18.4948 11.1082L17.0869 11.9213C16.9545 11.7248 16.8029 11.5405 16.6337 11.3714C16.3079 11.0455 15.926 10.7849 15.5088 10.6006L16.0658 9.06993C17.0668 9.48988 17.913 10.2058 18.4948 11.1082ZM14.7331 10.3555C14.8324 10.3752 14.9305 10.399 15.0273 10.4266L15.5847 8.89487C15.084 8.73961 14.5517 8.656 14 8.656C13.4475 8.656 12.9147 8.73983 12.4134 8.89547L12.9725 10.4318C13.5428 10.2659 14.1467 10.2388 14.7331 10.3555ZM11.9323 9.07071L12.4919 10.6083C11.8566 10.8928 11.3134 11.3506 10.9251 11.93L9.5042 11.1098C10.0857 10.2072 10.9315 9.49102 11.9323 9.07071ZM10.297 13.9962C10.297 13.432 10.4255 12.8775 10.6702 12.374L9.24787 11.5531C8.8696 12.2862 8.656 13.1182 8.656 14C8.656 14.2289 8.67039 14.4544 8.69832 14.6757L10.3184 14.3902C10.3043 14.2599 10.2971 14.1284 10.297 13.9962ZM8.78673 15.1801L10.4082 14.8943C10.5704 15.5419 10.9055 16.1397 11.3855 16.6196C11.4007 16.6348 11.4159 16.6498 11.4313 16.6647L10.3737 17.9254C9.59342 17.2042 9.02862 16.2533 8.78673 15.1801ZM11.8232 16.9942C12.3834 17.4029 13.049 17.648 13.7446 17.6984V19.338C12.6277 19.2855 11.6005 18.89 10.7658 18.2546L11.8232 16.9942ZM9.55544 7.34824C10.871 6.46919 12.4178 6 14 6C16.1217 6 18.1566 6.84285 19.6569 8.34315C21.1571 9.84344 22 11.8783 22 14C22 15.5822 21.5308 17.129 20.6518 18.4446C19.7727 19.7602 18.5233 20.7855 17.0615 21.391C15.5997 21.9965 13.9911 22.155 12.4393 21.8463C10.8874 21.5376 9.46197 20.7757 8.34315 19.6569C7.22433 18.538 6.4624 17.1126 6.15372 15.5607C5.84504 14.0089 6.00347 12.4003 6.60897 10.9385C7.21447 9.47672 8.23985 8.22729 9.55544 7.34824ZM12.2311 16.6569C12.7574 17.0085 13.3761 17.1962 14.009 17.1962C14.8577 17.1962 15.6716 16.859 16.2717 16.2589C16.8718 15.6588 17.209 14.8448 17.209 13.9962C17.209 13.3633 17.0213 12.7446 16.6697 12.2183C16.318 11.6921 15.8183 11.2819 15.2335 11.0397C14.6488 10.7975 14.0054 10.7342 13.3847 10.8576C12.7639 10.9811 12.1937 11.2859 11.7462 11.7334C11.2987 12.1809 10.9939 12.7511 10.8704 13.3719C10.747 13.9926 10.8103 14.636 11.0525 15.2207C11.2947 15.8055 11.7049 16.3052 12.2311 16.6569Z" fill="black"/>
</svg>
